<svg xmlns="http://www.w3.org/2000/svg" viewBox="19 22 62 68" width="62" height="68">
  <path d="M50 24 c10 0 15 8 11 15 12 0 18 9 12 16 9 4 8 15 -2 18 4 7 -2 15 -11 15 H40 c-9 0 -15 -8 -11 -15 -10 -3 -11 -14 -2 -18 -6 -7 0 -16 12 -16 -4 -7 1 -15 11 -15 z" fill="#A6713E"></path>
  <circle cx="43" cy="60" r="3.6" fill="#33241a"></circle>
  <circle cx="61" cy="60" r="3.6" fill="#33241a"></circle>
  <ellipse cx="40" cy="70" rx="5" ry="3" fill="#FF9E6B" opacity="0.5"></ellipse>
  <ellipse cx="64" cy="70" rx="5" ry="3" fill="#FF9E6B" opacity="0.5"></ellipse>
  <path d="M46 72 q6 5 12 0" stroke="#33241a" stroke-width="2.6" fill="none" stroke-linecap="round"></path>
</svg>